<svg xmlns="http://www.w3.org/2000/svg" width="575" height="575" viewBox="0 0 575 575" version="1.1">
	<path d="M 0 287.502 L 0 575.003 287.750 574.752 L 575.500 574.500 575.752 287.250 L 576.003 0 288.002 0 L 0 0 0 287.502 M 0.493 288 C 0.493 446.125, 0.609 510.813, 0.750 431.750 C 0.891 352.688, 0.891 223.313, 0.750 144.250 C 0.609 65.188, 0.493 129.875, 0.493 288 M 155 216.412 C 155 329.545, 154.879 326.972, 160.924 342.647 C 172.165 371.795, 198.466 393.122, 229.177 397.992 C 233.205 398.631, 239.200 399.007, 242.500 398.827 L 248.500 398.500 248.435 387.500 C 248.382 378.568, 247.947 375.424, 246.122 370.775 C 242.365 361.203, 236.004 353.604, 226.722 347.601 C 218.960 342.581, 210.519 334.739, 208.248 330.438 C 207.685 329.372, 206.388 326.250, 205.366 323.500 C 203.623 318.813, 203.475 313.179, 203.003 233.500 L 202.500 148.500 198.889 141 C 192.623 127.988, 183.149 119.429, 170.168 115.057 C 166.810 113.925, 162.024 113, 159.532 113 L 155 113 155 216.412 M 265 337.031 C 265 461.422, 265.196 481.138, 266.439 481.615 C 267.230 481.919, 270.493 481.637, 273.689 480.989 C 292.628 477.150, 308.076 461.406, 310.965 443 C 311.526 439.425, 311.988 427.837, 311.992 417.250 L 312 398 332.750 397.999 C 355.520 397.997, 364.705 396.862, 377.641 392.453 C 409.733 381.513, 434.795 353.601, 443.593 319 C 446.260 308.513, 446.258 282.613, 443.590 272.500 C 438.777 254.259, 430.470 238.886, 418.651 226.347 C 409.013 216.123, 401.893 210.690, 390.364 204.764 C 379.429 199.143, 367.757 195.408, 356.854 194.041 C 352.288 193.468, 329.753 193, 306.776 193 L 265 193 265 337.031 M 312 296.124 L 312 352.248 332.750 351.784 C 351.969 351.353, 354.078 351.122, 361.328 348.641 C 371.265 345.240, 378.131 340.838, 384.677 333.668 C 396.770 320.424, 401.712 304.390, 399.092 286.901 C 396.641 270.538, 384.004 252.907, 369.936 246.221 C 358.698 240.880, 353.277 240, 331.606 240 L 312 240 312 296.124" stroke="none" fill="black" fill-rule="evenodd"/>
</svg>